<svg width="300" height="300" viewBox="0 0 577 548" fill="none" xmlns="http://www.w3.org/2000/svg">
<path d="M288.308 541.912C447.536 541.912 576.616 420.655 576.616 271.077C576.616 121.499 447.536 0.242554 288.308 0.242554C129.08 0.242554 0 121.499 0 271.077C0 420.655 129.08 541.912 288.308 541.912Z" fill="#09C4A3"/>
<path d="M337.025 199.989C363.934 174.711 363.934 133.727 337.025 108.45C310.116 83.1717 266.489 83.1717 239.58 108.45C212.671 133.727 212.671 174.711 239.58 199.989C266.489 225.267 310.116 225.267 337.025 199.989Z" fill="#DC891A"/>
<path d="M328.541 199.988C355.45 174.71 355.45 133.727 328.541 108.449C301.632 83.1711 258.005 83.1711 231.096 108.449C204.187 133.727 204.187 174.71 231.096 199.988C258.005 225.266 301.632 225.266 328.541 199.988Z" fill="#FFB327"/>
<path d="M280.819 191.038V181.979C275.281 181.889 269.553 180.275 266.211 178.032L268.502 172.023C271.939 174.176 276.904 175.88 282.251 175.88C289.031 175.88 293.614 172.203 293.614 167.091C293.614 162.157 289.889 159.108 282.824 156.417C273.085 152.829 267.07 148.703 267.07 140.901C267.07 133.456 272.703 127.805 281.486 126.459V117.4H287.407V126.101C293.135 126.281 297.05 127.716 299.818 129.24L297.432 135.16C295.426 134.083 291.512 132.109 285.401 132.109C278.049 132.109 275.28 136.236 275.28 139.824C275.28 144.487 278.813 146.82 287.12 150.05C296.955 153.816 301.92 158.48 301.92 166.464C301.92 173.549 296.668 180.187 286.834 181.711V191.039H280.819V191.038Z" fill="white"/>
<path d="M240.254 84.5883C236.124 78.341 231.698 72.2828 226.98 66.4151C224.713 63.5961 219.803 66.6257 222.089 69.4687C226.808 75.3364 231.233 81.3954 235.363 87.6419C237.357 90.659 242.25 87.6079 240.254 84.5883Z" fill="#DC891A"/>
<path d="M272.76 78.9983C271.143 71.2798 270.32 63.4395 270.168 55.5768C270.099 52.025 264.237 52.3491 264.306 55.8942C264.469 64.2725 265.476 72.5489 267.198 80.768C267.924 84.236 273.482 82.4415 272.76 78.9983Z" fill="#DC891A"/>
<path d="M302.442 57.4144C298.487 63.7818 295.643 70.6573 293.938 77.8528C293.116 81.3233 298.86 82.4746 299.681 79.0099C301.282 72.2513 303.96 65.8979 307.675 59.9192C309.585 56.8449 304.34 54.3591 302.442 57.4144Z" fill="#DC891A"/>
<path d="M343.962 65.1146C337.616 71.1696 332.172 77.9523 327.654 85.3127C325.761 88.397 331.004 90.8836 332.886 87.8176C337.16 80.8534 342.344 74.5108 348.347 68.7833C351.004 66.2486 346.61 62.589 343.962 65.1146Z" fill="#DC891A"/>
<path d="M467.294 125.593L415.805 141.231L430.572 155.084L323.099 253.318L231.474 233.257L102.723 374.059L115.793 383.917L237.097 248.052L327.875 269.861L438.216 162.255L451.487 174.704L467.294 125.593Z" fill="#124460"/>
<path d="M500.314 518.393V220.069C500.314 215.974 496.748 212.624 492.389 212.624H415.153C410.794 212.624 407.228 215.974 407.228 220.069V518.393H397.22V303.606C397.22 299.511 393.654 296.161 389.295 296.161H312.059C307.7 296.161 304.134 299.511 304.134 303.606V518.393H294.126V363.012C294.126 358.918 290.56 355.567 286.201 355.567H208.965C204.606 355.567 201.04 358.918 201.04 363.012V518.393H191.032V433.562C191.032 429.467 187.466 426.117 183.107 426.117H105.871C101.512 426.117 97.9456 429.467 97.9456 433.562V518.393H67.485V547.085H532.001V518.393H500.314Z" fill="#124460"/>
</svg>
